<?xml version="1.0" encoding="UTF-8"?>
<svg version="1.1" width="512" height="512" viewBox="0 0 36 36" xmlns="http://www.w3.org/2000/svg">
 <circle cx="18" cy="19" r="17" fill="#f4900c"/>
 <circle cx="18" cy="17" r="17" fill="#ffcc4d"/>
 <circle cx="18" cy="18" r="14" fill="#ffe8b6"/>
 <circle cx="18" cy="17" r="14" fill="#ffac33"/>
 <g fill="#fff" stroke-width=".76027" aria-label="X">
  <path d="m19.953 16.742 5.0784 6.1327q0.90579 0.01485 1.3513 0.44547 0.46032 0.41577 0.46032 1.084t-0.47517 1.0988q-0.46032 0.41577-1.5592 0.41577h-3.4301q-1.084 0-1.5592-0.41577-0.46032-0.43062-0.46032-1.1137 0-0.63851 0.43062-1.0543 0.43062-0.43062 1.2919-0.46032l-3.0589-3.7717-3.0886 3.7717q0.8464 0.0297 1.277 0.46032 0.43062 0.43062 0.43062 1.0691 0 0.66821-0.47517 1.0988-0.46032 0.41577-1.5592 0.41577h-3.4153q-1.0988 0-1.574-0.41577-0.46032-0.43062-0.46032-1.1137 0-0.65336 0.46032-1.084 0.46032-0.43062 1.3513-0.43062l5.0487-6.1624-4.8111-5.7466q-0.89094-0.029698-1.3364-0.44547-0.43062-0.43062-0.43062-1.084 0-0.68306 0.46032-1.0988 0.47517-0.43062 1.574-0.43062l2.8065 0.014849q1.0988 0 1.5592 0.41577 0.47517 0.41577 0.47517 1.0988 0 0.50487-0.29698 0.92064-0.19304 0.25244-0.86125 0.60881l2.8362 3.4004 2.7768-3.4004q-0.66821-0.35638-0.86125-0.60881-0.29698-0.41577-0.29698-0.92064 0-0.66821 0.46032-1.0988 0.47517-0.43062 1.574-0.43062l2.7916 0.014849q1.0988 0 1.5592 0.41577 0.47517 0.41577 0.47517 1.0988 0 0.65336-0.46032 1.084-0.44547 0.43062-1.3067 0.44547z"/>
 </g>
</svg>
